<svg width="25" height="24" viewBox="0 0 25 24" fill="none" xmlns="http://www.w3.org/2000/svg">
<path d="M12.775 19C12.975 18.9833 13.1458 18.9042 13.2875 18.7625C13.4292 18.6208 13.5 18.45 13.5 18.25C13.5 18.0167 13.425 17.8292 13.275 17.6875C13.125 17.5458 12.9333 17.4833 12.7 17.5C12.0167 17.55 11.2917 17.3625 10.525 16.9375C9.75833 16.5125 9.275 15.7417 9.075 14.625C9.04167 14.4417 8.95417 14.2917 8.8125 14.175C8.67083 14.0583 8.50833 14 8.325 14C8.09167 14 7.9 14.0875 7.75 14.2625C7.6 14.4375 7.55 14.6417 7.6 14.875C7.88333 16.3917 8.55 17.475 9.6 18.125C10.65 18.775 11.7083 19.0667 12.775 19ZM12.5 22C10.2167 22 8.3125 21.2167 6.7875 19.65C5.2625 18.0833 4.5 16.1333 4.5 13.8C4.5 12.1333 5.1625 10.3208 6.4875 8.3625C7.8125 6.40417 9.81667 4.28333 12.5 2C15.1833 4.28333 17.1875 6.40417 18.5125 8.3625C19.8375 10.3208 20.5 12.1333 20.5 13.8C20.5 16.1333 19.7375 18.0833 18.2125 19.65C16.6875 21.2167 14.7833 22 12.5 22ZM12.5 20C14.2333 20 15.6667 19.4125 16.8 18.2375C17.9333 17.0625 18.5 15.5833 18.5 13.8C18.5 12.5833 17.9958 11.2083 16.9875 9.675C15.9792 8.14167 14.4833 6.46667 12.5 4.65C10.5167 6.46667 9.02083 8.14167 8.0125 9.675C7.00417 11.2083 6.5 12.5833 6.5 13.8C6.5 15.5833 7.06667 17.0625 8.2 18.2375C9.33333 19.4125 10.7667 20 12.5 20Z" fill="black" fill-opacity="0.5"/>
</svg>
